HIERARCHY
ROOT Hips
{
    OFFSET   0.000000   0.000000   0.000000
    CHANNELS 6 Xposition Yposition Zposition Zrotation Xrotation Yrotation
    JOINT Chest
    {
        OFFSET   0.000000   8.007230   0.000000
        CHANNELS 3 Zrotation Xrotation Yrotation
        JOINT Chest2
        {
            OFFSET   0.000000  22.077100   0.000000
            CHANNELS 3 Zrotation Xrotation Yrotation
            JOINT Neck
            {
                OFFSET   0.000000  23.255100   0.000000
                CHANNELS 3 Zrotation Xrotation Yrotation
                JOINT Head
                {
                    OFFSET   0.000000  14.370100   1.956600
                    CHANNELS 3 Zrotation Xrotation Yrotation
                    End Site
                    {
                        OFFSET   0.000000  19.566000   0.000000
                    }
                }
            }
            JOINT LeftCollar
            {
                OFFSET   3.911900  19.017000  -0.467063
                CHANNELS 3 Zrotation Xrotation Yrotation
                JOINT LeftShoulder
                {
                    OFFSET  10.383700   0.000000   0.000000
                    CHANNELS 3 Zrotation Xrotation Yrotation
                    JOINT LeftElbow
                    {
                        OFFSET  26.662100   0.001193   0.000980
                        CHANNELS 3 Zrotation Xrotation Yrotation
                        JOINT LeftWrist
                        {
                            OFFSET  28.869000  -0.000059  -0.000082
                            CHANNELS 3 Zrotation Xrotation Yrotation
                            JOINT LeftFinger0
                            {
                                OFFSET   2.044650  -2.323450   3.252850
                                CHANNELS 3 Zrotation Xrotation Yrotation
                                JOINT LeftFinger01
                                {
                                    OFFSET   3.088130   0.000000   0.000000
                                    CHANNELS 3 Zrotation Xrotation Yrotation
                                    JOINT LeftFinger02
                                    {
                                        OFFSET   2.639460   0.000000   0.000000
                                        CHANNELS 3 Zrotation Xrotation Yrotation
                                        End Site
                                        {
                                            OFFSET   2.582190   0.000000   0.000000
                                        }
                                    }
                                }
                            }
                            JOINT LeftFinger1
                            {
                                OFFSET   8.364480   0.000000   3.252850
                                CHANNELS 3 Zrotation Xrotation Yrotation
                                JOINT LeftFinger11
                                {
                                    OFFSET   4.646930   0.000000   0.000000
                                    CHANNELS 3 Zrotation Xrotation Yrotation
                                    JOINT LeftFinger12
                                    {
                                        OFFSET   2.323470   0.000000   0.000000
                                        CHANNELS 3 Zrotation Xrotation Yrotation
                                        End Site
                                        {
                                            OFFSET   2.273050   0.000000   0.000000
                                        }
                                    }
                                }
                            }
                            JOINT LeftFinger2
                            {
                                OFFSET   8.364490   0.000016   1.078090
                                CHANNELS 3 Zrotation Xrotation Yrotation
                                JOINT LeftFinger21
                                {
                                    OFFSET   5.111610   0.000000   0.000000
                                    CHANNELS 3 Zrotation Xrotation Yrotation
                                    JOINT LeftFinger22
                                    {
                                        OFFSET   2.788150   0.000016   0.000000
                                        CHANNELS 3 Zrotation Xrotation Yrotation
                                        End Site
                                        {
                                            OFFSET   2.727660   0.000000   0.000000
                                        }
                                    }
                                }
                            }
                            JOINT LeftFinger3
                            {
                                OFFSET   7.899780   0.000015  -1.078090
                                CHANNELS 3 Zrotation Xrotation Yrotation
                                JOINT LeftFinger31
                                {
                                    OFFSET   4.646930   0.000000   0.000000
                                    CHANNELS 3 Zrotation Xrotation Yrotation
                                    JOINT LeftFinger32
                                    {
                                        OFFSET   2.323470   0.000000   0.000000
                                        CHANNELS 3 Zrotation Xrotation Yrotation
                                        End Site
                                        {
                                            OFFSET   2.273050   0.000000   0.000000
                                        }
                                    }
                                }
                            }
                            JOINT LeftFinger4
                            {
                                OFFSET   7.435090   0.000000  -3.252850
                                CHANNELS 3 Zrotation Xrotation Yrotation
                                JOINT LeftFinger41
                                {
                                    OFFSET   3.717550   0.000000   0.000000
                                    CHANNELS 3 Zrotation Xrotation Yrotation
                                    JOINT LeftFinger42
                                    {
                                        OFFSET   1.858770   0.000000   0.000000
                                        CHANNELS 3 Zrotation Xrotation Yrotation
                                        End Site
                                        {
                                            OFFSET   1.818440   0.000000   0.000000
                                        }
                                    }
                                }
                            }
                        }
                    }
                }
            }
            JOINT RightCollar
            {
                OFFSET  -3.911910  19.017000  -0.467062
                CHANNELS 3 Zrotation Xrotation Yrotation
                JOINT RightShoulder
                {
                    OFFSET -10.383700   0.000014   0.000000
                    CHANNELS 3 Zrotation Xrotation Yrotation
                    JOINT RightElbow
                    {
                        OFFSET -26.662100   0.001225   0.001091
                        CHANNELS 3 Zrotation Xrotation Yrotation
                        JOINT RightWrist
                        {
                            OFFSET -28.869000  -0.000020  -0.000085
                            CHANNELS 3 Zrotation Xrotation Yrotation
                            JOINT RightFinger0
                            {
                                OFFSET  -2.044650  -2.323490   3.252850
                                CHANNELS 3 Zrotation Xrotation Yrotation
                                JOINT RightFinger01
                                {
                                    OFFSET  -3.088130   0.000000   0.000000
                                    CHANNELS 3 Zrotation Xrotation Yrotation
                                    JOINT RightFinger02
                                    {
                                        OFFSET  -2.639460   0.000000   0.000000
                                        CHANNELS 3 Zrotation Xrotation Yrotation
                                        End Site
                                        {
                                            OFFSET  -2.582190   0.000000   0.000000
                                        }
                                    }
                                }
                            }
                            JOINT RightFinger1
                            {
                                OFFSET  -8.364480   0.000000   3.252850
                                CHANNELS 3 Zrotation Xrotation Yrotation
                                JOINT RightFinger11
                                {
                                    OFFSET  -4.646930   0.000000   0.000000
                                    CHANNELS 3 Zrotation Xrotation Yrotation
                                    JOINT RightFinger12
                                    {
                                        OFFSET  -2.323470   0.000000   0.000000
                                        CHANNELS 3 Zrotation Xrotation Yrotation
                                        End Site
                                        {
                                            OFFSET  -2.273050   0.000000   0.000000
                                        }
                                    }
                                }
                            }
                            JOINT RightFinger2
                            {
                                OFFSET  -8.364480   0.000000   1.078090
                                CHANNELS 3 Zrotation Xrotation Yrotation
                                JOINT RightFinger21
                                {
                                    OFFSET  -5.111620   0.000000   0.000000
                                    CHANNELS 3 Zrotation Xrotation Yrotation
                                    JOINT RightFinger22
                                    {
                                        OFFSET  -2.788160   0.000000   0.000000
                                        CHANNELS 3 Zrotation Xrotation Yrotation
                                        End Site
                                        {
                                            OFFSET  -2.727660   0.000000   0.000000
                                        }
                                    }
                                }
                            }
                            JOINT RightFinger3
                            {
                                OFFSET  -7.899780   0.000000  -1.078090
                                CHANNELS 3 Zrotation Xrotation Yrotation
                                JOINT RightFinger31
                                {
                                    OFFSET  -4.646930   0.000000   0.000000
                                    CHANNELS 3 Zrotation Xrotation Yrotation
                                    JOINT RightFinger32
                                    {
                                        OFFSET  -2.323470   0.000000   0.000000
                                        CHANNELS 3 Zrotation Xrotation Yrotation
                                        End Site
                                        {
                                            OFFSET  -2.273050   0.000000   0.000000
                                        }
                                    }
                                }
                            }
                            JOINT RightFinger4
                            {
                                OFFSET  -7.435090   0.000000  -3.252850
                                CHANNELS 3 Zrotation Xrotation Yrotation
                                JOINT RightFinger41
                                {
                                    OFFSET  -3.717550   0.000000   0.000000
                                    CHANNELS 3 Zrotation Xrotation Yrotation
                                    JOINT RightFinger42
                                    {
                                        OFFSET  -1.858760   0.000000   0.000000
                                        CHANNELS 3 Zrotation Xrotation Yrotation
                                        End Site
                                        {
                                            OFFSET  -1.818440   0.000000   0.000000
                                        }
                                    }
                                }
                            }
                        }
                    }
                }
            }
        }
    }
    JOINT LeftHip
    {
        OFFSET   9.783030   0.000000   0.000000
        CHANNELS 3 Zrotation Xrotation Yrotation
        JOINT LeftKnee
        {
            OFFSET   0.000063 -41.789100   0.000608
            CHANNELS 3 Zrotation Xrotation Yrotation
            JOINT LeftAnkle
            {
                OFFSET   0.000048 -41.133200  -0.000184
                CHANNELS 3 Zrotation Xrotation Yrotation
                JOINT LeftToe
                {
                    OFFSET   0.000000  -6.358960  14.674500
                    CHANNELS 3 Zrotation Xrotation Yrotation
                    End Site
                    {
                        OFFSET   0.000000   0.000000   3.913200
                    }
                }
            }
        }
    }
    JOINT RightHip
    {
        OFFSET  -9.783030   0.000000   0.000000
        CHANNELS 3 Zrotation Xrotation Yrotation
        JOINT RightKnee
        {
            OFFSET   0.000071 -41.789100   0.001239
            CHANNELS 3 Zrotation Xrotation Yrotation
            JOINT RightAnkle
            {
                OFFSET   0.000037 -41.133200  -0.000166
                CHANNELS 3 Zrotation Xrotation Yrotation
                JOINT RightToe
                {
                    OFFSET   0.000000  -6.358960  14.674500
                    CHANNELS 3 Zrotation Xrotation Yrotation
                    End Site
                    {
                        OFFSET   0.000000   0.000000   3.913200
                    }
                }
            }
        }
    }
}
MOTION
Frames: 4
Frame Time:   0.016667
  0.111853  89.975800   1.730060  -2.810350 -17.644800  -4.083660  -2.060400  11.201600   0.281011  -4.306590  22.385300   1.011890  -2.045800   3.228520   0.115303  -3.387900   6.521300  15.177000   6.028420  -1.007430   5.664640 -46.924700  27.866900 -47.663400  -7.782070  -6.701380 -102.678000  52.263500 -55.056500  86.154400  47.647600  35.205000 -73.070400  -6.161500   0.000563   0.000196   1.919260   0.005437  -0.004650 -33.353900   4.730660  -7.141660 -27.530500  -0.001503  -0.001321 -19.271300   0.001581  -0.016562 -32.476500  -3.676920   5.761770 -48.992000  -0.001269  -0.000037 -32.628700   0.000405  -0.004496 -29.016500  -4.933170   8.823620 -44.095400  -0.003121  -0.002146 -29.367500  -0.001113  -0.002748 -41.088400  -8.684110   9.825750 -62.754600   0.000153   0.002533 -41.794600   0.005273  -0.004669  -2.137250  -2.576610   2.583770  38.340900  -8.790230  48.768500  -9.104380 -19.145200  94.830700  38.972400 -16.808900  17.443800 -54.147100  47.379200  72.608000  30.802200   0.006294  -0.007919  10.406800   0.004067   0.004132  65.534800   1.057090   0.529646  53.607600   0.004468  -0.008698  40.205700  -0.005744   0.000280  82.134300   0.006454  -0.020871  82.134300  -0.019226  -0.010638  61.600700  -0.014398   0.008797  89.001400  -4.988550  -0.087967  95.691100  -0.032897  -0.005084  71.768300  -0.011059   0.022019  88.976900  -9.995880  -0.177787 110.000000  -0.004502  -0.000442  80.000000  -0.000275   0.007260   1.311950  17.485200   4.060840   1.258060   2.901100  11.796300  -6.052330  -4.578630   5.069100  -0.000000   0.000000  -0.000000   3.648050  14.671400 -10.189400  -2.490040   7.081380  -3.610860  -8.548480  -0.962470   3.443400   0.000000   0.000000   0.000000
  0.096335  89.972700   1.750750  -2.805950 -17.633800  -4.056750  -2.060990  11.186900   0.242591  -4.298150  22.357000   0.932033  -2.033710   3.222350   0.114474  -3.370850   6.509450  15.149600   5.942950  -0.985643   5.731820 -47.033100  27.908000 -47.657600  -7.760530  -6.611520 -102.755000  52.236600 -55.067400  86.144100  47.616800  35.241500 -73.151300  -6.090180   0.000598   0.000114   1.954910   0.005422  -0.004688 -33.380200   4.761980  -7.180840 -27.555700  -0.001537  -0.001321 -19.289000   0.001584  -0.023743 -32.526100  -3.676360   5.748270 -49.065800  -0.001278  -0.000067 -32.677800   0.000309  -0.004538 -29.040800  -4.933990   8.819410 -44.131700  -0.003196  -0.002153 -29.391700  -0.001104  -0.002718 -41.135700  -8.690540   9.814540 -62.824900   0.000190   0.002455 -41.841400   0.005268  -0.004725  -1.949220  -2.350710   2.828690  39.490700  -8.269960  48.549600  -9.182770 -19.640500  95.771700  35.153200 -17.286400  21.028000 -55.661500  48.203700  73.168100  30.497900   0.013536  -0.007748  10.248900   0.008488   0.008280  65.355100   1.902030   0.894427  53.467700   0.004138  -0.008729  40.100800  -0.005965   0.000207  81.886200   0.003171  -0.023965  81.886200  -0.022814  -0.009838  61.414700  -0.014673   0.011493  89.001400  -4.988390  -0.087970  95.310300  -0.034985  -0.003204  71.482700  -0.011067   0.023953  88.976900  -9.995680  -0.177801 110.000000  -0.004545  -0.000478  80.000000  -0.000288   0.007282   1.332330  17.497400   4.056160   1.255300   2.902680  11.790100  -6.066000  -4.589320   5.049230   0.000000   0.000000   0.000000   3.667200  14.672100 -10.182300  -2.473780   7.079600  -3.633590  -8.569190  -0.971494   3.420190   0.000000   0.000000  -0.000000
  0.082165  89.970100   1.770430  -2.798560 -17.625800  -4.023650  -2.056420  11.187600   0.228514  -4.283720  22.358800   0.901147  -2.022890   3.206980   0.113629  -3.354490   6.478950  15.026900   5.863590  -1.008500   5.698140 -47.187200  27.918400 -47.601700  -7.770620  -6.509060 -102.848000  52.080000 -55.080900  85.974500  47.594200  35.304200 -73.274400  -5.982500   0.000637   0.000112   2.008740   0.005412  -0.004731 -33.346300   4.793790  -7.237170 -27.532300  -0.001573  -0.001322 -19.272600   0.001584  -0.017186 -32.600700  -3.676360   5.727940 -49.176900  -0.001288  -0.000116 -32.751800   0.000202  -0.004557 -29.032800  -4.934800   8.820580 -44.120100  -0.003262  -0.002161 -29.384000  -0.001099  -0.002691 -41.135000  -8.669420   9.789420 -62.817400   0.000230   0.002379 -41.836400   0.005272  -0.004783  -1.652620  -2.131990   3.078190  40.557300  -7.822090  48.194500  -8.931940 -20.118100  96.946300  31.905800 -18.647600  23.620000 -56.976200  49.296500  74.661500  31.006000   0.013343  -0.007673  10.503000   0.007091   0.007514  65.423200   2.186020   0.986568  53.532200   0.003782  -0.004490  40.149200  -0.001016   0.000201  81.569500   0.002010  -0.011366  81.569500  -0.010863  -0.005991  61.177200  -0.008411   0.005609  89.001500  -4.988230  -0.087967  94.785400  -0.017462  -0.002030  71.089000  -0.006766   0.012079  88.976800  -9.995480  -0.177806 110.000000  -0.004594  -0.000510  80.000000  -0.000306   0.007300   1.350890  17.518500   4.050970   1.257120   2.885550  11.787000  -6.083270  -4.589910   5.021620  -0.000000   0.000000  -0.000000   3.677710  14.681800 -10.182900  -2.447490   7.069370  -3.661530  -8.589100  -0.984680   3.405960   0.000000   0.000000   0.000000
  0.067547  89.968700   1.786780  -2.791540 -17.613000  -3.988800  -2.045490  11.192900   0.226507  -4.262980  22.369900   0.895932  -2.017840   3.185480   0.112784  -3.343840   6.435470  14.829900   5.778280  -1.065820   5.631380 -47.328300  27.930100 -47.542800  -7.787410  -6.409430 -102.949000  51.843400 -55.082700  85.714400  47.643800  35.373400 -73.387900  -5.883250   0.000674   0.000112   2.058370   0.005404  -0.004775 -33.298500   4.819720  -7.289440 -27.495600  -0.001611  -0.001324 -19.246900   0.001584  -0.001245 -32.650500  -3.676320   5.714380 -49.251000  -0.001297  -0.000171 -32.801200   0.000093  -0.004571 -29.020100  -4.935630   8.822430 -44.101500  -0.003327  -0.002171 -29.371600  -0.001094  -0.002664 -41.124800  -8.648120   9.771480 -62.798100   0.000270   0.002305 -41.823600   0.005275  -0.004841  -1.309260  -1.937270   3.323910  41.598200  -7.413890  47.730900  -8.610190 -20.568600  98.233800  29.180500 -19.560600  25.397900 -57.689800  50.271000  76.306400  31.915000   0.011997  -0.007598  10.957500   0.004944   0.005908  65.549100   2.244250   0.999748  53.642100   0.002371   0.002376  40.231500   0.004217   0.000200  81.261900  -0.001235   0.001233  81.261900   0.001125   0.001384  60.946500   0.001324  -0.000275  89.001500  -4.988060  -0.087965  94.285700   0.000060   0.001267  70.714300   0.000884   0.000206  88.976800  -9.995270  -0.177810 110.000000  -0.004641  -0.000541  80.000000  -0.000321   0.007317   1.372710  17.538900   4.043380   1.260560   2.853280  11.785600  -6.101830  -4.590170   4.992910  -0.000000   0.000000   0.000000   3.686680  14.691100 -10.184400  -2.418640   7.055920  -3.691660  -8.607600  -1.000600   3.399220   0.000000   0.000000   0.000000
